<svg width="84" height="78" viewBox="0 0 84 78" fill="none" xmlns="http://www.w3.org/2000/svg">
<rect width="84" height="78" fill="#D9D9D9"/>
<circle cx="42" cy="39" r="28" fill="#7C7C7C"/>
<path d="M36.6797 35.4766C39.3203 35.3516 41.5312 35.1562 43.3125 34.8906C45.0938 34.6094 46.5156 34.2734 47.5781 33.8828C48.6562 33.4766 49.4219 33.0234 49.875 32.5234C50.3281 32.0078 50.5547 31.4453 50.5547 30.8359C50.5547 30.2578 50.3672 29.7422 49.9922 29.2891C49.6172 28.8359 49.0781 28.4609 48.375 28.1641C47.6719 27.8516 46.8125 27.6172 45.7969 27.4609C44.7969 27.3047 43.6641 27.2266 42.3984 27.2266C41.0391 27.2266 39.6641 27.3125 38.2734 27.4844C36.8828 27.6562 35.5469 27.8906 34.2656 28.1875C32.9844 28.4844 31.7812 28.8359 30.6562 29.2422C29.5312 29.6484 28.5469 30.0781 27.7031 30.5312L24.2812 24.9062C25.0781 24.4375 26.0781 23.9531 27.2812 23.4531C28.4844 22.9375 29.8438 22.4688 31.3594 22.0469C32.8906 21.625 34.5547 21.2812 36.3516 21.0156C38.1484 20.75 40.0469 20.6172 42.0469 20.6172C44.5312 20.6172 46.7578 20.8516 48.7266 21.3203C50.7109 21.7734 52.3828 22.4375 53.7422 23.3125C55.1172 24.1719 56.1641 25.2344 56.8828 26.5C57.6172 27.7656 57.9844 29.2031 57.9844 30.8125C57.9844 32.0312 57.7422 33.1562 57.2578 34.1875C56.7891 35.2188 55.9922 36.1484 54.8672 36.9766C53.7422 37.8047 52.2422 38.5234 50.3672 39.1328C48.4922 39.7422 46.1562 40.2344 43.3594 40.6094V44.6641H36.6797V35.4766ZM35.0859 53.9453C35.0859 53.3203 35.2109 52.7344 35.4609 52.1875C35.7266 51.625 36.1016 51.1406 36.5859 50.7344C37.0703 50.3125 37.6562 49.9844 38.3438 49.75C39.0312 49.5156 39.8047 49.3984 40.6641 49.3984C41.5234 49.3984 42.2969 49.5156 42.9844 49.75C43.6719 49.9844 44.25 50.3125 44.7188 50.7344C45.2031 51.1406 45.5703 51.625 45.8203 52.1875C46.0859 52.7344 46.2188 53.3203 46.2188 53.9453C46.2188 54.5703 46.0859 55.1641 45.8203 55.7266C45.5703 56.2734 45.2031 56.75 44.7188 57.1562C44.25 57.5625 43.6719 57.8828 42.9844 58.1172C42.2969 58.3672 41.5234 58.4922 40.6641 58.4922C39.8047 58.4922 39.0312 58.3672 38.3438 58.1172C37.6562 57.8828 37.0703 57.5625 36.5859 57.1562C36.1016 56.75 35.7266 56.2734 35.4609 55.7266C35.2109 55.1641 35.0859 54.5703 35.0859 53.9453Z" fill="#D9D9D9"/>
</svg>
