<svg width="205" height="205" viewBox="0 0 205 205" fill="none" xmlns="http://www.w3.org/2000/svg">
<g filter="url(#filter0_d_34_515)">
<circle cx="102.5" cy="98.5" r="98.5" fill="white" fill-opacity="0.4" shape-rendering="crispEdges"/>
<circle cx="102.5" cy="98.5" r="98" stroke="black" shape-rendering="crispEdges"/>
</g>
<path d="M48.372 96.8676C29.6941 87.1871 32.4826 57.8021 32.7426 36.6826C35.9322 41.3312 39.1051 46.8391 42.9388 49.8586C48.942 54.587 53.6749 59.5977 60.3852 63.1261C71.9327 69.1978 80.7714 74.2987 93.6921 74.2987C100.246 74.2987 106.2 74.0096 112.641 72.7026C119.14 71.3838 125.266 68.2729 131.799 67.1163C139.606 65.7341 152.406 62.3549 159.68 66.2185C174.248 73.9557 172.744 102.143 172.744 117.842V155.438C173.194 157.378 172.957 160.887 172.744 163.647V155.438C172.65 155.034 172.527 154.698 172.367 154.451C170.705 151.879 172.728 147.584 171.427 144.685C170.411 142.419 170.807 138.434 170.16 135.83C169.179 131.883 167.756 128.376 166.646 124.597C164.496 117.278 158.921 112.351 155.202 106.431C153.343 103.471 148.792 101.502 145.884 101.422C136.461 101.162 126.733 101.088 117.399 102.788C110.645 104.018 104.374 106.887 97.496 106.887C90.7923 106.887 83.5235 107.922 76.8982 106.684C66.8421 104.805 57.731 101.718 48.372 96.8676Z" fill="#202EFF"/>
<path d="M32.7602 34.0217C32.7602 55.2538 28.8956 86.7733 48.372 96.8676C57.731 101.718 66.8421 104.805 76.8982 106.684C83.5235 107.922 90.7923 106.887 97.496 106.887C104.374 106.887 110.645 104.018 117.399 102.788C126.733 101.088 136.461 101.162 145.884 101.422C148.792 101.502 153.343 103.471 155.202 106.431C158.921 112.351 164.496 117.278 166.646 124.597C167.756 128.376 169.179 131.883 170.16 135.83C170.807 138.434 170.411 142.419 171.427 144.685C172.728 147.584 170.705 151.879 172.367 154.451C173.688 156.496 172.531 164.632 172.531 167M30 33C34.1799 37.9951 38.0142 45.9799 42.9388 49.8586C48.942 54.587 53.6749 59.5977 60.3852 63.1261C71.9327 69.1978 80.7713 74.2987 93.6921 74.2987C100.246 74.2987 106.2 74.0096 112.641 72.7026C119.14 71.3838 125.266 68.2729 131.799 67.1163C139.606 65.7341 152.406 62.3549 159.68 66.2185C174.248 73.9557 172.744 102.143 172.744 117.842V165.874" stroke="black" stroke-width="3" stroke-linecap="round"/>
<path d="M43.5946 93.586C35.3419 86.2364 33.0501 73.5914 32.5615 60.4973C32.6466 61.2115 32.742 61.9221 32.8489 62.6287C34.1956 71.5322 37.4489 82.2316 41.4718 89.8304C42.1566 91.124 42.8639 92.3748 43.5946 93.586C45.0058 94.8428 46.5913 95.9447 48.3719 96.8676C57.7309 101.718 66.842 104.805 76.8982 106.684C83.5234 107.922 90.7923 106.887 97.4959 106.887C104.374 106.887 110.645 104.018 117.399 102.788C126.732 101.088 136.461 101.162 145.884 101.422C148.792 101.502 153.343 103.471 155.202 106.431C158.921 112.351 164.496 117.278 166.646 124.597C167.756 128.376 169.179 131.883 170.16 135.83C170.807 138.434 170.41 142.419 171.427 144.685C172.728 147.584 170.705 151.879 172.367 154.451C173.451 156.129 172.866 161.907 172.622 165.235C171.805 163.098 171.272 160.854 170.436 158.593C168.787 154.133 165.745 151.538 163.959 147.672C162.173 143.809 158.505 141.835 155.462 139.683C153.027 137.962 151.188 135.07 148.48 133.818C144.563 132.008 140.82 129.502 136.702 127.852C133.693 126.647 130.691 125.855 127.616 124.717C117.453 120.958 104.966 125.73 94.4709 123.555C82.4298 121.059 69.6933 120.291 59.2643 111.673C53.0913 106.571 47.9314 100.775 43.5946 93.586Z" fill="#23FF20"/>
<path d="M32.7601 34.0217C32.7601 55.2538 28.8956 86.7733 48.3719 96.8676C57.7309 101.718 66.842 104.805 76.8982 106.684C83.5235 107.922 90.7923 106.887 97.4959 106.887C104.374 106.887 110.645 104.018 117.399 102.788C126.732 101.088 136.461 101.162 145.884 101.422C148.792 101.502 153.343 103.471 155.202 106.431C158.921 112.351 164.496 117.278 166.646 124.597C167.756 128.376 169.179 131.883 170.16 135.83C170.807 138.434 170.41 142.419 171.427 144.685C172.728 147.584 170.705 151.879 172.367 154.451C173.688 156.496 172.531 164.632 172.531 167M32.0497 33C32.0497 42.8351 31.4073 53.0984 32.8489 62.6287C34.1956 71.5322 37.4489 82.2316 41.4718 89.8304C46.2216 98.8024 52.0513 105.712 59.2643 111.673C69.6933 120.291 82.4298 121.059 94.4709 123.555C104.966 125.73 117.453 120.958 127.616 124.717C130.691 125.855 133.693 126.647 136.702 127.852C140.82 129.502 144.563 132.008 148.48 133.818C151.188 135.07 153.027 137.962 155.462 139.683C158.505 141.835 162.173 143.809 163.959 147.672C165.745 151.538 168.787 154.133 170.436 158.593C171.356 161.08 171.908 163.548 172.876 165.874" stroke="black" stroke-width="3" stroke-linecap="round"/>
<circle cx="146.5" cy="36.5" r="18.5" fill="white"/>
<defs>
<filter id="filter0_d_34_515" x="0" y="0" width="205" height="205" filterUnits="userSpaceOnUse" color-interpolation-filters="sRGB">
<feFlood flood-opacity="0" result="BackgroundImageFix"/>
<feColorMatrix in="SourceAlpha" type="matrix" values="0 0 0 0 0 0 0 0 0 0 0 0 0 0 0 0 0 0 127 0" result="hardAlpha"/>
<feOffset dy="4"/>
<feGaussianBlur stdDeviation="2"/>
<feComposite in2="hardAlpha" operator="out"/>
<feColorMatrix type="matrix" values="0 0 0 0 0 0 0 0 0 0 0 0 0 0 0 0 0 0 0.25 0"/>
<feBlend mode="normal" in2="BackgroundImageFix" result="effect1_dropShadow_34_515"/>
<feBlend mode="normal" in="SourceGraphic" in2="effect1_dropShadow_34_515" result="shape"/>
</filter>
</defs>
</svg>
