<svg width="84" height="78" viewBox="0 0 84 78" fill="none" xmlns="http://www.w3.org/2000/svg">
<rect width="84" height="78" fill="#D9D9D9"/>
<circle cx="42" cy="39" r="28" fill="#7C7C7C"/>
<circle cx="42" cy="39" r="16" fill="#D9D9D9"/>
<ellipse cx="43" cy="13.5" rx="7" ry="8.5" fill="#7C7C7C"/>
<ellipse cx="67.5" cy="39" rx="7" ry="8.5" transform="rotate(90 67.5 39)" fill="#7C7C7C"/>
<ellipse cx="42" cy="64.5" rx="7" ry="8.5" transform="rotate(180 42 64.5)" fill="#7C7C7C"/>
<ellipse cx="17.5" cy="39" rx="7" ry="8.5" transform="rotate(-90 17.5 39)" fill="#7C7C7C"/>
<ellipse cx="60.5422" cy="20.9728" rx="7" ry="8.5" transform="rotate(43.9006 60.5422 20.9728)" fill="#7C7C7C"/>
<ellipse cx="60.5136" cy="56.3352" rx="7" ry="8.5" transform="rotate(133.901 60.5136 56.3352)" fill="#7C7C7C"/>
<ellipse cx="24.4578" cy="57.0272" rx="7" ry="8.5" transform="rotate(-136.099 24.4578 57.0272)" fill="#7C7C7C"/>
<ellipse cx="24.4864" cy="21.6648" rx="7" ry="8.5" transform="rotate(-46.0994 24.4864 21.6648)" fill="#7C7C7C"/>
</svg>
