<svg width="84" height="78" viewBox="0 0 84 78" fill="none" xmlns="http://www.w3.org/2000/svg">
<rect width="84" height="78" fill="#D9D9D9"/>
<circle cx="41.5" cy="24.5" r="21.5" fill="#787878"/>
<path d="M81 77.5C81 73.7573 79.9912 70.0513 78.0313 66.5935C76.0714 63.1357 73.1986 59.9939 69.5772 57.3475C65.9557 54.701 61.6564 52.6017 56.9247 51.1694C52.193 49.7372 47.1216 49 42 49C36.8784 49 31.807 49.7372 27.0753 51.1694C22.3436 52.6017 18.0443 54.701 14.4228 57.3475C10.8013 59.9939 7.92863 63.1357 5.9687 66.5935C4.00876 70.0513 3 73.7573 3 77.5L42 77.5H81Z" fill="#787878"/>
</svg>
